<mxfile host="app.diagrams.net" modified="2024-05-21T14:27:55.002Z" agent="Mozilla/5.0 (Macintosh; Intel Mac OS X 10_15_7) AppleWebKit/537.36 (KHTML, like Gecko) Chrome/124.0.0.0 Safari/537.36" etag="FS2grptnUdGYrgID5M9u" version="24.4.4" type="github">
  <diagram name="PÃ¡gina-1" id="4mRH0hL-Q44UiGIc9XdV">
    <mxGraphModel dx="1621" dy="414" grid="1" gridSize="10" guides="1" tooltips="1" connect="1" arrows="1" fold="1" page="1" pageScale="1" pageWidth="827" pageHeight="1169" math="0" shadow="0">
      <root>
        <mxCell id="0" />
        <mxCell id="1" parent="0" />
        <mxCell id="-sxoiZcU2vqW23qMqD57-52" style="edgeStyle=orthogonalEdgeStyle;rounded=0;orthogonalLoop=1;jettySize=auto;html=1;" edge="1" parent="1" source="-sxoiZcU2vqW23qMqD57-1" target="-sxoiZcU2vqW23qMqD57-53">
          <mxGeometry relative="1" as="geometry">
            <mxPoint x="90" y="150" as="targetPoint" />
          </mxGeometry>
        </mxCell>
        <mxCell id="-sxoiZcU2vqW23qMqD57-62" style="edgeStyle=orthogonalEdgeStyle;rounded=0;orthogonalLoop=1;jettySize=auto;html=1;" edge="1" parent="1" source="-sxoiZcU2vqW23qMqD57-1" target="-sxoiZcU2vqW23qMqD57-64">
          <mxGeometry relative="1" as="geometry">
            <mxPoint y="220" as="targetPoint" />
          </mxGeometry>
        </mxCell>
        <mxCell id="-sxoiZcU2vqW23qMqD57-65" style="edgeStyle=orthogonalEdgeStyle;rounded=0;orthogonalLoop=1;jettySize=auto;html=1;exitX=0.5;exitY=1;exitDx=0;exitDy=0;" edge="1" parent="1" source="-sxoiZcU2vqW23qMqD57-1" target="-sxoiZcU2vqW23qMqD57-66">
          <mxGeometry relative="1" as="geometry">
            <mxPoint x="10" y="260" as="targetPoint" />
          </mxGeometry>
        </mxCell>
        <mxCell id="-sxoiZcU2vqW23qMqD57-67" style="edgeStyle=orthogonalEdgeStyle;rounded=0;orthogonalLoop=1;jettySize=auto;html=1;" edge="1" parent="1" source="-sxoiZcU2vqW23qMqD57-1" target="-sxoiZcU2vqW23qMqD57-68">
          <mxGeometry relative="1" as="geometry">
            <mxPoint x="90" y="300" as="targetPoint" />
          </mxGeometry>
        </mxCell>
        <mxCell id="-sxoiZcU2vqW23qMqD57-69" style="edgeStyle=orthogonalEdgeStyle;rounded=0;orthogonalLoop=1;jettySize=auto;html=1;" edge="1" parent="1" source="-sxoiZcU2vqW23qMqD57-1" target="-sxoiZcU2vqW23qMqD57-70">
          <mxGeometry relative="1" as="geometry">
            <mxPoint x="160" y="280" as="targetPoint" />
          </mxGeometry>
        </mxCell>
        <mxCell id="-sxoiZcU2vqW23qMqD57-1" value="CLIENTE" style="whiteSpace=wrap;html=1;align=center;" vertex="1" parent="1">
          <mxGeometry x="40" y="200" width="100" height="40" as="geometry" />
        </mxCell>
        <mxCell id="-sxoiZcU2vqW23qMqD57-2" value="COMPRA" style="shape=ext;margin=3;double=1;whiteSpace=wrap;html=1;align=center;" vertex="1" parent="1">
          <mxGeometry x="350" y="200" width="100" height="40" as="geometry" />
        </mxCell>
        <mxCell id="-sxoiZcU2vqW23qMqD57-34" style="edgeStyle=orthogonalEdgeStyle;rounded=0;orthogonalLoop=1;jettySize=auto;html=1;" edge="1" parent="1" source="-sxoiZcU2vqW23qMqD57-3" target="-sxoiZcU2vqW23qMqD57-35">
          <mxGeometry relative="1" as="geometry">
            <mxPoint x="650" y="150" as="targetPoint" />
          </mxGeometry>
        </mxCell>
        <mxCell id="-sxoiZcU2vqW23qMqD57-36" style="edgeStyle=orthogonalEdgeStyle;rounded=0;orthogonalLoop=1;jettySize=auto;html=1;" edge="1" parent="1" source="-sxoiZcU2vqW23qMqD57-3" target="-sxoiZcU2vqW23qMqD57-37">
          <mxGeometry relative="1" as="geometry">
            <mxPoint x="720" y="140" as="targetPoint" />
          </mxGeometry>
        </mxCell>
        <mxCell id="-sxoiZcU2vqW23qMqD57-38" style="edgeStyle=orthogonalEdgeStyle;rounded=0;orthogonalLoop=1;jettySize=auto;html=1;" edge="1" parent="1" source="-sxoiZcU2vqW23qMqD57-3">
          <mxGeometry relative="1" as="geometry">
            <mxPoint x="780" y="160" as="targetPoint" />
          </mxGeometry>
        </mxCell>
        <mxCell id="-sxoiZcU2vqW23qMqD57-40" style="edgeStyle=orthogonalEdgeStyle;rounded=0;orthogonalLoop=1;jettySize=auto;html=1;" edge="1" parent="1" source="-sxoiZcU2vqW23qMqD57-3" target="-sxoiZcU2vqW23qMqD57-41">
          <mxGeometry relative="1" as="geometry">
            <mxPoint x="600" y="220" as="targetPoint" />
          </mxGeometry>
        </mxCell>
        <mxCell id="-sxoiZcU2vqW23qMqD57-3" value="FUNCIONARIO" style="whiteSpace=wrap;html=1;align=center;" vertex="1" parent="1">
          <mxGeometry x="640" y="200" width="100" height="40" as="geometry" />
        </mxCell>
        <mxCell id="-sxoiZcU2vqW23qMqD57-22" value="" style="edgeStyle=orthogonalEdgeStyle;rounded=0;orthogonalLoop=1;jettySize=auto;html=1;" edge="1" parent="1" source="-sxoiZcU2vqW23qMqD57-4" target="-sxoiZcU2vqW23qMqD57-21">
          <mxGeometry relative="1" as="geometry" />
        </mxCell>
        <mxCell id="-sxoiZcU2vqW23qMqD57-24" value="" style="edgeStyle=orthogonalEdgeStyle;rounded=0;orthogonalLoop=1;jettySize=auto;html=1;" edge="1" parent="1" source="-sxoiZcU2vqW23qMqD57-4" target="-sxoiZcU2vqW23qMqD57-23">
          <mxGeometry relative="1" as="geometry" />
        </mxCell>
        <mxCell id="-sxoiZcU2vqW23qMqD57-26" value="" style="edgeStyle=orthogonalEdgeStyle;rounded=0;orthogonalLoop=1;jettySize=auto;html=1;" edge="1" parent="1" source="-sxoiZcU2vqW23qMqD57-4" target="-sxoiZcU2vqW23qMqD57-25">
          <mxGeometry relative="1" as="geometry" />
        </mxCell>
        <mxCell id="-sxoiZcU2vqW23qMqD57-4" value="PRODUTO" style="whiteSpace=wrap;html=1;align=center;" vertex="1" parent="1">
          <mxGeometry x="360" y="350" width="100" height="40" as="geometry" />
        </mxCell>
        <mxCell id="-sxoiZcU2vqW23qMqD57-42" style="edgeStyle=orthogonalEdgeStyle;rounded=0;orthogonalLoop=1;jettySize=auto;html=1;" edge="1" parent="1" source="-sxoiZcU2vqW23qMqD57-5" target="-sxoiZcU2vqW23qMqD57-43">
          <mxGeometry relative="1" as="geometry">
            <mxPoint x="170" y="440" as="targetPoint" />
          </mxGeometry>
        </mxCell>
        <mxCell id="-sxoiZcU2vqW23qMqD57-44" style="edgeStyle=orthogonalEdgeStyle;rounded=0;orthogonalLoop=1;jettySize=auto;html=1;" edge="1" parent="1" source="-sxoiZcU2vqW23qMqD57-5" target="-sxoiZcU2vqW23qMqD57-45">
          <mxGeometry relative="1" as="geometry">
            <mxPoint x="80" y="450" as="targetPoint" />
          </mxGeometry>
        </mxCell>
        <mxCell id="-sxoiZcU2vqW23qMqD57-50" style="edgeStyle=orthogonalEdgeStyle;rounded=0;orthogonalLoop=1;jettySize=auto;html=1;" edge="1" parent="1" source="-sxoiZcU2vqW23qMqD57-5" target="-sxoiZcU2vqW23qMqD57-51">
          <mxGeometry relative="1" as="geometry">
            <mxPoint x="-10" y="420" as="targetPoint" />
          </mxGeometry>
        </mxCell>
        <mxCell id="-sxoiZcU2vqW23qMqD57-5" value="FORNECEDOR" style="whiteSpace=wrap;html=1;align=center;" vertex="1" parent="1">
          <mxGeometry x="40" y="350" width="100" height="40" as="geometry" />
        </mxCell>
        <mxCell id="-sxoiZcU2vqW23qMqD57-28" value="" style="edgeStyle=orthogonalEdgeStyle;rounded=0;orthogonalLoop=1;jettySize=auto;html=1;" edge="1" parent="1" source="-sxoiZcU2vqW23qMqD57-6" target="-sxoiZcU2vqW23qMqD57-27">
          <mxGeometry relative="1" as="geometry" />
        </mxCell>
        <mxCell id="-sxoiZcU2vqW23qMqD57-29" value="" style="edgeStyle=orthogonalEdgeStyle;rounded=0;orthogonalLoop=1;jettySize=auto;html=1;" edge="1" parent="1" source="-sxoiZcU2vqW23qMqD57-6" target="-sxoiZcU2vqW23qMqD57-27">
          <mxGeometry relative="1" as="geometry" />
        </mxCell>
        <mxCell id="-sxoiZcU2vqW23qMqD57-30" value="" style="edgeStyle=orthogonalEdgeStyle;rounded=0;orthogonalLoop=1;jettySize=auto;html=1;" edge="1" parent="1" source="-sxoiZcU2vqW23qMqD57-6" target="-sxoiZcU2vqW23qMqD57-27">
          <mxGeometry relative="1" as="geometry" />
        </mxCell>
        <mxCell id="-sxoiZcU2vqW23qMqD57-32" style="edgeStyle=orthogonalEdgeStyle;rounded=0;orthogonalLoop=1;jettySize=auto;html=1;exitX=0.75;exitY=1;exitDx=0;exitDy=0;" edge="1" parent="1" source="-sxoiZcU2vqW23qMqD57-6" target="-sxoiZcU2vqW23qMqD57-33">
          <mxGeometry relative="1" as="geometry">
            <mxPoint x="740" y="450" as="targetPoint" />
          </mxGeometry>
        </mxCell>
        <mxCell id="-sxoiZcU2vqW23qMqD57-6" value="DEPARTAMENTO" style="whiteSpace=wrap;html=1;align=center;" vertex="1" parent="1">
          <mxGeometry x="620" y="340" width="100" height="40" as="geometry" />
        </mxCell>
        <mxCell id="-sxoiZcU2vqW23qMqD57-7" value="codigo" style="ellipse;whiteSpace=wrap;html=1;align=center;" vertex="1" parent="1">
          <mxGeometry x="290" y="120" width="100" height="40" as="geometry" />
        </mxCell>
        <mxCell id="-sxoiZcU2vqW23qMqD57-8" value="qtd-produtos" style="ellipse;whiteSpace=wrap;html=1;align=center;dashed=1;" vertex="1" parent="1">
          <mxGeometry x="414" y="130" width="100" height="40" as="geometry" />
        </mxCell>
        <mxCell id="-sxoiZcU2vqW23qMqD57-13" value="" style="endArrow=none;html=1;rounded=0;" edge="1" parent="1" source="-sxoiZcU2vqW23qMqD57-7" target="-sxoiZcU2vqW23qMqD57-2">
          <mxGeometry relative="1" as="geometry">
            <mxPoint x="280" y="290" as="sourcePoint" />
            <mxPoint x="440" y="290" as="targetPoint" />
            <Array as="points">
              <mxPoint x="400" y="140" />
            </Array>
          </mxGeometry>
        </mxCell>
        <mxCell id="-sxoiZcU2vqW23qMqD57-14" value="" style="endArrow=none;html=1;rounded=0;entryX=0.5;entryY=1;entryDx=0;entryDy=0;exitX=0.68;exitY=-0.025;exitDx=0;exitDy=0;exitPerimeter=0;" edge="1" parent="1" source="-sxoiZcU2vqW23qMqD57-2" target="-sxoiZcU2vqW23qMqD57-8">
          <mxGeometry relative="1" as="geometry">
            <mxPoint x="280" y="290" as="sourcePoint" />
            <mxPoint x="440" y="290" as="targetPoint" />
            <Array as="points">
              <mxPoint x="418" y="170" />
            </Array>
          </mxGeometry>
        </mxCell>
        <mxCell id="-sxoiZcU2vqW23qMqD57-21" value="codigo" style="ellipse;whiteSpace=wrap;html=1;" vertex="1" parent="1">
          <mxGeometry x="270" y="450" width="80" height="80" as="geometry" />
        </mxCell>
        <mxCell id="-sxoiZcU2vqW23qMqD57-23" value="valor" style="ellipse;whiteSpace=wrap;html=1;" vertex="1" parent="1">
          <mxGeometry x="470" y="450" width="80" height="80" as="geometry" />
        </mxCell>
        <mxCell id="-sxoiZcU2vqW23qMqD57-25" value="descricao" style="ellipse;whiteSpace=wrap;html=1;" vertex="1" parent="1">
          <mxGeometry x="370" y="450" width="80" height="80" as="geometry" />
        </mxCell>
        <mxCell id="-sxoiZcU2vqW23qMqD57-27" value="descricao" style="ellipse;whiteSpace=wrap;html=1;" vertex="1" parent="1">
          <mxGeometry x="590" y="440" width="80" height="80" as="geometry" />
        </mxCell>
        <mxCell id="-sxoiZcU2vqW23qMqD57-33" value="codigo" style="ellipse;whiteSpace=wrap;html=1;align=center;" vertex="1" parent="1">
          <mxGeometry x="690" y="430" width="100" height="40" as="geometry" />
        </mxCell>
        <mxCell id="-sxoiZcU2vqW23qMqD57-35" value="codigo" style="ellipse;whiteSpace=wrap;html=1;align=center;" vertex="1" parent="1">
          <mxGeometry x="600" y="130" width="100" height="40" as="geometry" />
        </mxCell>
        <mxCell id="-sxoiZcU2vqW23qMqD57-37" value="nome" style="ellipse;whiteSpace=wrap;html=1;align=center;" vertex="1" parent="1">
          <mxGeometry x="670" y="80" width="100" height="40" as="geometry" />
        </mxCell>
        <mxCell id="-sxoiZcU2vqW23qMqD57-39" value="cpf" style="ellipse;whiteSpace=wrap;html=1;align=center;" vertex="1" parent="1">
          <mxGeometry x="727" y="120" width="100" height="40" as="geometry" />
        </mxCell>
        <mxCell id="-sxoiZcU2vqW23qMqD57-41" value="telefone" style="ellipse;shape=doubleEllipse;margin=3;whiteSpace=wrap;html=1;align=center;" vertex="1" parent="1">
          <mxGeometry x="520" y="200" width="100" height="40" as="geometry" />
        </mxCell>
        <mxCell id="-sxoiZcU2vqW23qMqD57-43" value="nome" style="ellipse;whiteSpace=wrap;html=1;align=center;" vertex="1" parent="1">
          <mxGeometry x="120" y="420" width="100" height="40" as="geometry" />
        </mxCell>
        <mxCell id="-sxoiZcU2vqW23qMqD57-45" value="codigo" style="ellipse;whiteSpace=wrap;html=1;align=center;" vertex="1" parent="1">
          <mxGeometry x="30" y="430" width="100" height="40" as="geometry" />
        </mxCell>
        <mxCell id="-sxoiZcU2vqW23qMqD57-51" value="telefone" style="ellipse;shape=doubleEllipse;margin=3;whiteSpace=wrap;html=1;align=center;" vertex="1" parent="1">
          <mxGeometry x="-60" y="400" width="100" height="40" as="geometry" />
        </mxCell>
        <mxCell id="-sxoiZcU2vqW23qMqD57-54" style="edgeStyle=orthogonalEdgeStyle;rounded=0;orthogonalLoop=1;jettySize=auto;html=1;" edge="1" parent="1" source="-sxoiZcU2vqW23qMqD57-53" target="-sxoiZcU2vqW23qMqD57-55">
          <mxGeometry relative="1" as="geometry">
            <mxPoint x="90" y="80" as="targetPoint" />
          </mxGeometry>
        </mxCell>
        <mxCell id="-sxoiZcU2vqW23qMqD57-56" style="edgeStyle=orthogonalEdgeStyle;rounded=0;orthogonalLoop=1;jettySize=auto;html=1;" edge="1" parent="1" source="-sxoiZcU2vqW23qMqD57-53" target="-sxoiZcU2vqW23qMqD57-57">
          <mxGeometry relative="1" as="geometry">
            <mxPoint x="150" y="60" as="targetPoint" />
          </mxGeometry>
        </mxCell>
        <mxCell id="-sxoiZcU2vqW23qMqD57-58" style="edgeStyle=orthogonalEdgeStyle;rounded=0;orthogonalLoop=1;jettySize=auto;html=1;" edge="1" parent="1" source="-sxoiZcU2vqW23qMqD57-53" target="-sxoiZcU2vqW23qMqD57-59">
          <mxGeometry relative="1" as="geometry">
            <mxPoint x="180" y="120" as="targetPoint" />
          </mxGeometry>
        </mxCell>
        <mxCell id="-sxoiZcU2vqW23qMqD57-60" style="edgeStyle=orthogonalEdgeStyle;rounded=0;orthogonalLoop=1;jettySize=auto;html=1;" edge="1" parent="1" source="-sxoiZcU2vqW23qMqD57-53" target="-sxoiZcU2vqW23qMqD57-61">
          <mxGeometry relative="1" as="geometry">
            <mxPoint y="110" as="targetPoint" />
          </mxGeometry>
        </mxCell>
        <mxCell id="-sxoiZcU2vqW23qMqD57-53" value="endereco" style="ellipse;whiteSpace=wrap;html=1;align=center;" vertex="1" parent="1">
          <mxGeometry x="40" y="130" width="100" height="40" as="geometry" />
        </mxCell>
        <mxCell id="-sxoiZcU2vqW23qMqD57-55" value="bairro" style="ellipse;whiteSpace=wrap;html=1;align=center;" vertex="1" parent="1">
          <mxGeometry y="40" width="100" height="40" as="geometry" />
        </mxCell>
        <mxCell id="-sxoiZcU2vqW23qMqD57-57" value="numero" style="ellipse;whiteSpace=wrap;html=1;align=center;" vertex="1" parent="1">
          <mxGeometry x="100" y="40" width="100" height="40" as="geometry" />
        </mxCell>
        <mxCell id="-sxoiZcU2vqW23qMqD57-59" value="rua" style="ellipse;whiteSpace=wrap;html=1;align=center;" vertex="1" parent="1">
          <mxGeometry x="160" y="80" width="100" height="40" as="geometry" />
        </mxCell>
        <mxCell id="-sxoiZcU2vqW23qMqD57-61" value="cep" style="ellipse;whiteSpace=wrap;html=1;align=center;" vertex="1" parent="1">
          <mxGeometry x="-80" y="80" width="100" height="40" as="geometry" />
        </mxCell>
        <mxCell id="-sxoiZcU2vqW23qMqD57-64" value="telefone" style="ellipse;shape=doubleEllipse;margin=3;whiteSpace=wrap;html=1;align=center;" vertex="1" parent="1">
          <mxGeometry x="-110" y="200" width="100" height="40" as="geometry" />
        </mxCell>
        <mxCell id="-sxoiZcU2vqW23qMqD57-66" value="codigo" style="ellipse;whiteSpace=wrap;html=1;align=center;" vertex="1" parent="1">
          <mxGeometry x="-50" y="270" width="100" height="40" as="geometry" />
        </mxCell>
        <mxCell id="-sxoiZcU2vqW23qMqD57-68" value="nome" style="ellipse;whiteSpace=wrap;html=1;align=center;" vertex="1" parent="1">
          <mxGeometry x="60" y="290" width="100" height="40" as="geometry" />
        </mxCell>
        <mxCell id="-sxoiZcU2vqW23qMqD57-70" value="cpf" style="ellipse;whiteSpace=wrap;html=1;align=center;" vertex="1" parent="1">
          <mxGeometry x="130" y="250" width="100" height="40" as="geometry" />
        </mxCell>
      </root>
    </mxGraphModel>
  </diagram>
</mxfile>
